<svg fill="gray" xmlns="http://www.w3.org/2000/svg" xmlns:xlink="http://www.w3.org/1999/xlink" version="1.1" x="0px" y="0px" viewBox="0 0 100 125" enable-background="new 0 0 100 100" xml:space="preserve"><g><g><path d="M62.7,13.6l-0.2,1.5c1,0.5,1.8,1.1,2.1,1.8c-0.5,0.3-1.3,0.7-2.4,1L62,20c1.1-0.3,2.1-0.7,3-1.1l-2,64.5    c-0.6,1-7.7,3.2-13,3.2s-12.4-2.2-13-3.2L35,18.6c4.5,2.4,12.8,2.9,14.6,2.9c1,0,4.6-0.1,8.3-0.6l0.2-1.8    c-2.5,0.5-5.4,0.8-8.1,0.8c-6,0-12.9-1.9-14.7-3.2c0.8-2.1,8.5-3.1,14.6-3.1c2.8,0,6,0.1,8.7,0.6l0.2-1.5    c-2.7-0.5-5.7-0.7-8.8-0.7c-8,0-16.4,1.7-16.4,5.1l2.1,69.7c0,3.4,8.6,5.1,14.3,5.1s14.3-1.7,14.3-5.1L66.4,17    C66.4,15.6,64.9,14.5,62.7,13.6z"/><path d="M53.5,81.5C53.5,81.5,53.6,81.5,53.5,81.5c0.4,0,0.6-0.2,0.7-0.6l8.2-77.5c0-0.4-0.2-0.7-0.5-0.8c-0.3,0-0.6,0.2-0.7,0.6    L53,80.7C53,81.1,53.2,81.5,53.5,81.5z"/><path d="M56.6,33.4c-3.4,0.4-6.4,0.4-7,0.4c-0.1,0-6.3,0-11.8-1.7L39,82.5c1.8,0.8,5.4,2.2,11,2.2s9.2-1.4,11-2.2l1.3-50.3    c-0.5,0.2-1.1,0.3-1.7,0.4L55.4,83l-4-0.4L56.6,33.4z M44.2,68.6l-4.3-19.9c5.5-1.2,10.9,2.3,12.1,7.8    C53.1,62,49.7,67.4,44.2,68.6z"/><path d="M42.3,49.5l-1.3,0l3.9,18l1.1-0.6c3.8-1.9,5.8-6.1,4.9-10.2C50.1,52.7,46.4,49.7,42.3,49.5z M46.3,64.4l-2.8-12.7    c2.7,0.6,4.9,2.7,5.5,5.5C49.6,60,48.5,62.8,46.3,64.4z"/></g></g></svg>