<svg fill="gray" xmlns="http://www.w3.org/2000/svg" xmlns:xlink="http://www.w3.org/1999/xlink" version="1.1" x="0px" y="0px" viewBox="0 0 100 125" enable-background="new 0 0 100 100" xml:space="preserve"><g><path d="M57.4,26l-0.2,1.5c2.7,0.5,4.7,1.4,5.3,3c-1,0.8-3.2,1.6-6,2.2l-0.2,1.7c2.3-0.4,4.7-1,6.6-2l-2,44.5   c-0.6,1-5.7,3.2-11,3.2s-10.4-2.2-11-3.2L37,32c4.5,2.4,10.8,2.9,12.6,2.9c0.6,0,2,0,3.8-0.2l0.2-1.6c-1.1,0.1-2.3,0.2-3.5,0.2   c-6,0-10.9-1.9-12.7-3.2C38.1,28,43.9,27,49.9,27c1.5,0,3,0,4.4,0.1l0.2-1.6c-1.4-0.1-2.9-0.2-4.4-0.2c-8,0-14.4,1.7-14.4,5.1   l2.1,49.7c0,3.4,6.6,5.1,12.3,5.1s12.3-1.7,12.3-5.1l2.1-49.7C64.4,28.3,61.6,26.7,57.4,26z"/><path d="M50.1,74.3C50.1,74.3,50.2,74.3,50.1,74.3c0.3,0,0.5-0.2,0.6-0.4l6.8-57.1c0-0.3-0.2-0.5-0.4-0.6c-0.3,0-0.5,0.2-0.6,0.4   l-6.8,57.1C49.6,74,49.8,74.3,50.1,74.3z"/><path d="M52.6,41.1l0.1-1c0,0,0,0,0,0C44.8,40.3,40,38.5,40,38.5c-0.2-0.1-0.3,0-0.5,0.1c-0.1,0.1-0.2,0.3-0.2,0.4l0.6,7.2L41,76   c1.2,0.7,4.9,2.1,9,2.1s7.8-1.4,9-2.1l1.1-29.7l0.5-7c0-0.2-0.1-0.3-0.2-0.4c-0.1-0.1-0.3-0.1-0.5-0.1c-1.1,0.4-2.8,0.7-4.2,0.9   l-0.1,1c1.3-0.2,2.8-0.4,3.9-0.8L59.1,46c-1.5,0.4-2.9,0.7-4.2,0.8l-3.4,28.6l-3-0.4l3.3-28c-1.1,0-1.9,0-2.3,0   c-1.4,0-4.8-0.3-8.6-1.5l-0.6-6C42,40.2,46.3,41.3,52.6,41.1z"/></g></svg>